<svg xmlns="http://www.w3.org/2000/svg" xmlns:xlink="http://www.w3.org/1999/xlink" viewBox="0,0,256,256" width="128px" height="128px" fill-rule="nonzero"><g fill="#16c2ef" fill-rule="nonzero" stroke="none" stroke-width="1" stroke-linecap="butt" stroke-linejoin="miter" stroke-miterlimit="10" stroke-dasharray="" stroke-dashoffset="0" font-family="none" font-weight="none" font-size="none" text-anchor="none" style="mix-blend-mode: normal"><g transform="scale(16,16)"><path d="M5.41797,1.91992c-0.27514,0.01687 -0.54489,0.09115 -0.79297,0.23437c-0.49616,0.28646 -0.79696,0.78914 -0.91797,1.33789c-0.12101,0.54875 -0.09118,1.15973 0.0293,1.81445c0.01627,0.08843 0.04673,0.18343 0.06641,0.27344c-0.195,0.06041 -0.39933,0.11678 -0.57812,0.18555c-0.6279,0.2415 -1.15478,0.53053 -1.55078,0.89063c-0.396,0.36009 -0.67383,0.82293 -0.67383,1.34375c0,0.52082 0.27783,0.98366 0.67383,1.34375c0.396,0.36009 0.92288,0.64912 1.55078,0.89063c0.19444,0.07479 0.41537,0.1363 0.62891,0.20117c-0.02884,0.14513 -0.06972,0.2978 -0.08984,0.4375c-0.09311,0.64625 -0.09267,1.23029 0.0293,1.74219c0.12197,0.5119 0.38684,0.97344 0.83203,1.23047c0.44519,0.25703 0.97616,0.25579 1.48047,0.10547c0.50431,-0.15032 1.01227,-0.44194 1.52539,-0.8457c0.11026,-0.08676 0.22143,-0.19802 0.33203,-0.29492c0.07985,0.07355 0.15797,0.1601 0.23828,0.22851c0.50676,0.4317 1.02091,0.76207 1.55664,0.93164c0.53573,0.16957 1.12103,0.16146 1.61719,-0.125c0.49616,-0.28646 0.79696,-0.78914 0.91797,-1.33789c0.12101,-0.54875 0.09118,-1.15973 -0.0293,-1.81445c-0.01627,-0.08843 -0.04673,-0.18342 -0.06641,-0.27344c0.195,-0.06041 0.39933,-0.11678 0.57813,-0.18555c0.6279,-0.2415 1.15478,-0.53053 1.55078,-0.89062c0.396,-0.36009 0.67383,-0.82293 0.67383,-1.34375c0,-0.52082 -0.27783,-0.98366 -0.67383,-1.34375c-0.396,-0.36009 -0.92288,-0.64912 -1.55078,-0.89062c-0.19444,-0.07479 -0.41537,-0.1363 -0.62891,-0.20117c0.02884,-0.14513 0.06972,-0.2978 0.08984,-0.4375c0.09311,-0.64625 0.09267,-1.23029 -0.0293,-1.74219c-0.12197,-0.5119 -0.38684,-0.97344 -0.83203,-1.23047c-0.44519,-0.25703 -0.97616,-0.25579 -1.48047,-0.10547c-0.5043,0.15032 -1.01227,0.44194 -1.52539,0.8457c-0.11026,0.08676 -0.22143,0.19802 -0.33203,0.29492c-0.07985,-0.07355 -0.15797,-0.1601 -0.23828,-0.22852c-0.50676,-0.4317 -1.02091,-0.76207 -1.55664,-0.93164c-0.26787,-0.08479 -0.54908,-0.12624 -0.82422,-0.10937zM5.48633,2.91211c0.13215,-0.00685 0.27946,0.01534 0.45313,0.07031c0.34733,0.10994 0.77287,0.36539 1.21289,0.74023c0.05574,0.04749 0.11375,0.11099 0.16992,0.16211c-0.33729,0.36102 -0.66801,0.7623 -0.99023,1.20312c-0.55153,0.05436 -1.07087,0.13737 -1.5625,0.24219c-0.01413,-0.06588 -0.03898,-0.13899 -0.05078,-0.20312c-0.10461,-0.56849 -0.11166,-1.06416 -0.0332,-1.41992c0.07846,-0.35576 0.21393,-0.55729 0.43945,-0.6875c0.11276,-0.0651 0.22918,-0.10057 0.36133,-0.10742zM10.59375,2.94336c0.11335,0.00514 0.20491,0.0321 0.28125,0.07617c0.15267,0.08815 0.28151,0.26072 0.36133,0.5957c0.07981,0.33498 0.09042,0.80969 0.00977,1.36914c-0.0151,0.10482 -0.04901,0.22559 -0.07031,0.33594c-0.4718,-0.09841 -0.96794,-0.17813 -1.49414,-0.23047c-0.30255,-0.42398 -0.61631,-0.82307 -0.94141,-1.1875c0.08224,-0.0711 0.1674,-0.15724 0.24805,-0.2207c0.4442,-0.34953 0.86139,-0.57741 1.19141,-0.67578c0.165,-0.04919 0.30072,-0.06764 0.41406,-0.0625zM8.02344,4.60352c0.11717,0.13284 0.23361,0.26626 0.34961,0.41016c-0.12588,-0.00267 -0.24543,-0.01367 -0.37305,-0.01367c-0.11895,0 -0.23022,0.01135 -0.34766,0.01367c0.12386,-0.14794 0.24708,-0.27606 0.37109,-0.41016zM8,6c0.38955,0 0.76731,0.01869 1.13672,0.04492c0.20734,0.30858 0.40713,0.62845 0.5957,0.95508c0.1883,0.32614 0.36594,0.65884 0.5293,0.99219c-0.15979,0.33377 -0.33424,0.66996 -0.5293,1.00781c-0.19349,0.33513 -0.39614,0.65199 -0.60352,0.95508c-0.36703,0.02588 -0.74203,0.04492 -1.12891,0.04492c-0.38955,0 -0.76731,-0.01869 -1.13672,-0.04492c-0.20734,-0.30858 -0.40713,-0.62845 -0.5957,-0.95508c-0.18829,-0.32614 -0.36594,-0.65884 -0.5293,-0.99219c0.15979,-0.33377 0.33424,-0.66996 0.5293,-1.00781c0.19349,-0.33513 0.39614,-0.65199 0.60352,-0.95508c0.36703,-0.02588 0.74203,-0.04492 1.12891,-0.04492zM5.60156,6.18555c-0.06524,0.10728 -0.13556,0.20419 -0.19922,0.31445c-0.06376,0.11044 -0.11345,0.21976 -0.17383,0.33008c-0.06996,-0.18105 -0.13072,-0.35718 -0.18945,-0.5332c0.18648,-0.03861 0.36422,-0.07979 0.5625,-0.11133zM10.40234,6.18555c0.18524,0.02952 0.35043,0.06976 0.52539,0.10547c-0.05323,0.17108 -0.10119,0.33802 -0.16601,0.51563c-0.0562,-0.10173 -0.10588,-0.20586 -0.16406,-0.30664c-0.06197,-0.10733 -0.13129,-0.20854 -0.19531,-0.31445zM11.90039,6.53711c0.174,0.05365 0.36004,0.10227 0.51563,0.16211c0.54837,0.21091 0.97449,0.45917 1.23633,0.69727c0.26184,0.2381 0.34766,0.43398 0.34766,0.60352c0,0.16954 -0.08582,0.36542 -0.34766,0.60352c-0.26184,0.2381 -0.68796,0.48635 -1.23633,0.69727c-0.14509,0.0558 -0.31932,0.1019 -0.48047,0.15234c-0.15682,-0.48175 -0.35504,-0.97171 -0.58008,-1.46484c0.21942,-0.49666 0.40127,-0.98102 0.54492,-1.45117zM4.06445,6.54688c0.15682,0.48175 0.35504,0.97171 0.58008,1.46484c-0.21942,0.49666 -0.40127,0.98102 -0.54492,1.45117c-0.174,-0.05365 -0.36004,-0.10227 -0.51563,-0.16211c-0.54837,-0.21091 -0.97449,-0.45917 -1.23633,-0.69727c-0.26184,-0.2381 -0.34766,-0.43398 -0.34766,-0.60352c0,-0.16954 0.08582,-0.36542 0.34766,-0.60352c0.26184,-0.2381 0.68796,-0.48635 1.23633,-0.69727c0.14509,-0.0558 0.31931,-0.1019 0.48047,-0.15234zM8,7c-0.55228,0 -1,0.44772 -1,1c0,0.55228 0.44772,1 1,1c0.55228,0 1,-0.44772 1,-1c0,-0.55228 -0.44772,-1 -1,-1zM10.77148,9.16992c0.06996,0.18105 0.13072,0.35718 0.18945,0.5332c-0.18648,0.03861 -0.36422,0.07979 -0.5625,0.11133c0.06524,-0.10728 0.13556,-0.20419 0.19922,-0.31445c0.06376,-0.11044 0.11345,-0.21976 0.17383,-0.33008zM5.23828,9.19336c0.0562,0.10173 0.10588,0.20586 0.16406,0.30664c0.06197,0.10733 0.13129,0.20854 0.19531,0.31445c-0.18524,-0.02952 -0.35043,-0.06976 -0.52539,-0.10547c0.05324,-0.17108 0.10119,-0.33802 0.16602,-0.51562zM11.23047,10.66992c0.01413,0.06588 0.03898,0.13899 0.05078,0.20313c0.10461,0.56849 0.11166,1.06416 0.0332,1.41992c-0.07845,0.35576 -0.21393,0.55729 -0.43945,0.6875c-0.22553,0.13021 -0.46712,0.14705 -0.81445,0.03711c-0.34733,-0.10993 -0.77287,-0.36539 -1.21289,-0.74023c-0.05574,-0.04749 -0.11375,-0.11099 -0.16992,-0.16211c0.33729,-0.36102 0.66801,-0.7623 0.99023,-1.20312c0.55153,-0.05436 1.07087,-0.13737 1.5625,-0.24219zM4.82422,10.67969c0.4718,0.09841 0.96794,0.17813 1.49414,0.23047c0.30255,0.42398 0.61631,0.82307 0.94141,1.1875c-0.08224,0.0711 -0.1674,0.15724 -0.24805,0.2207c-0.4442,0.34953 -0.86139,0.57741 -1.19141,0.67578c-0.33001,0.09837 -0.54264,0.07447 -0.69531,-0.01367c-0.15267,-0.08814 -0.28151,-0.26072 -0.36133,-0.5957c-0.07981,-0.33498 -0.09037,-0.80969 -0.00977,-1.36914c0.0151,-0.10482 0.04901,-0.22559 0.07031,-0.33594zM7.62695,10.98633c0.12588,0.00267 0.24543,0.01367 0.37305,0.01367c0.11895,0 0.23022,-0.01135 0.34766,-0.01367c-0.12386,0.14794 -0.24708,0.27606 -0.37109,0.41016c-0.11717,-0.13284 -0.23361,-0.26626 -0.34961,-0.41016z"></path></g></g></svg>